<mxfile host="app.diagrams.net" agent="Mozilla/5.0 (Windows NT 10.0; Win64; x64; rv:138.0) Gecko/20100101 Firefox/138.0" version="27.0.9" pages="2">
  <diagram name="Page-1" id="Q_Gx-w3jYwRl3H0XYTmS">
    <mxGraphModel dx="1202" dy="700" grid="1" gridSize="10" guides="1" tooltips="1" connect="1" arrows="1" fold="1" page="1" pageScale="1" pageWidth="850" pageHeight="1100" math="0" shadow="0">
      <root>
        <mxCell id="0" />
        <mxCell id="1" parent="0" />
        <mxCell id="zc0wXRbAbpBn7JZgr6jW-5" style="edgeStyle=orthogonalEdgeStyle;rounded=0;orthogonalLoop=1;jettySize=auto;html=1;exitX=0.5;exitY=1;exitDx=0;exitDy=0;" parent="1" source="zc0wXRbAbpBn7JZgr6jW-4" edge="1">
          <mxGeometry relative="1" as="geometry">
            <mxPoint x="330" y="400" as="targetPoint" />
          </mxGeometry>
        </mxCell>
        <mxCell id="zc0wXRbAbpBn7JZgr6jW-4" value="&lt;div&gt;Register&lt;/div&gt;" style="rounded=0;whiteSpace=wrap;html=1;" parent="1" vertex="1">
          <mxGeometry x="210" y="270" width="100" height="50" as="geometry" />
        </mxCell>
        <mxCell id="zc0wXRbAbpBn7JZgr6jW-7" style="edgeStyle=orthogonalEdgeStyle;rounded=0;orthogonalLoop=1;jettySize=auto;html=1;exitX=0.5;exitY=1;exitDx=0;exitDy=0;entryX=0.5;entryY=0;entryDx=0;entryDy=0;" parent="1" source="zc0wXRbAbpBn7JZgr6jW-6" target="zc0wXRbAbpBn7JZgr6jW-4" edge="1">
          <mxGeometry relative="1" as="geometry">
            <mxPoint x="80" y="230" as="targetPoint" />
            <Array as="points">
              <mxPoint x="330" y="480" />
              <mxPoint x="70" y="480" />
              <mxPoint x="70" y="230" />
              <mxPoint x="260" y="230" />
            </Array>
          </mxGeometry>
        </mxCell>
        <mxCell id="zc0wXRbAbpBn7JZgr6jW-6" value="" style="rounded=0;whiteSpace=wrap;html=1;" parent="1" vertex="1">
          <mxGeometry x="270" y="400" width="120" height="60" as="geometry" />
        </mxCell>
      </root>
    </mxGraphModel>
  </diagram>
  <diagram id="lEO95b67jXWiIIxcTEaO" name="Page-2">
    <mxGraphModel dx="2003" dy="1167" grid="1" gridSize="10" guides="1" tooltips="1" connect="1" arrows="1" fold="1" page="1" pageScale="2.5" pageWidth="560" pageHeight="120" math="0" shadow="0">
      <root>
        <mxCell id="0" />
        <mxCell id="1" parent="0" />
        <mxCell id="cGicD6HLZmWZz7QnFyKL-6" style="rounded=0;orthogonalLoop=1;jettySize=auto;html=1;exitX=1;exitY=0.5;exitDx=0;exitDy=0;entryX=0;entryY=0.5;entryDx=0;entryDy=0;noEdgeStyle=1;orthogonal=1;" edge="1" parent="1" source="cGicD6HLZmWZz7QnFyKL-1" target="cGicD6HLZmWZz7QnFyKL-2">
          <mxGeometry relative="1" as="geometry">
            <Array as="points">
              <mxPoint x="78" y="166.53125" />
              <mxPoint x="154" y="166.53125" />
            </Array>
          </mxGeometry>
        </mxCell>
        <mxCell id="cGicD6HLZmWZz7QnFyKL-1" value="&lt;div style=&quot;line-height: 90%; padding-top: 5px;&quot;&gt;INIT&lt;br&gt;*&lt;/div&gt;" style="ellipse;whiteSpace=wrap;html=1;fontSize=18;verticalAlign=middle;" vertex="1" parent="1">
          <mxGeometry x="6" y="136.53125" width="90" height="60" as="geometry" />
        </mxCell>
        <mxCell id="cGicD6HLZmWZz7QnFyKL-7" style="rounded=0;orthogonalLoop=1;jettySize=auto;html=1;exitX=1;exitY=0.5;exitDx=0;exitDy=0;noEdgeStyle=1;orthogonal=1;" edge="1" parent="1" source="cGicD6HLZmWZz7QnFyKL-2" target="cGicD6HLZmWZz7QnFyKL-3">
          <mxGeometry relative="1" as="geometry">
            <Array as="points">
              <mxPoint x="268" y="149.86458333333334" />
              <mxPoint x="344" y="77" />
            </Array>
          </mxGeometry>
        </mxCell>
        <mxCell id="cGicD6HLZmWZz7QnFyKL-44" value="CReq" style="edgeLabel;html=1;align=center;verticalAlign=middle;resizable=0;points=[];strokeColor=default;fontFamily=Helvetica;fontSize=11;fontColor=default;labelBackgroundColor=default;fillColor=default;" vertex="1" connectable="0" parent="cGicD6HLZmWZz7QnFyKL-7">
          <mxGeometry x="0.0763" y="1" relative="1" as="geometry">
            <mxPoint as="offset" />
          </mxGeometry>
        </mxCell>
        <mxCell id="cGicD6HLZmWZz7QnFyKL-9" style="rounded=0;orthogonalLoop=1;jettySize=auto;html=1;exitX=1;exitY=0.5;exitDx=0;exitDy=0;entryX=0;entryY=0.5;entryDx=0;entryDy=0;noEdgeStyle=1;orthogonal=1;" edge="1" parent="1" source="cGicD6HLZmWZz7QnFyKL-2" target="cGicD6HLZmWZz7QnFyKL-4">
          <mxGeometry relative="1" as="geometry">
            <Array as="points">
              <mxPoint x="270" y="166.53125" />
              <mxPoint x="344" y="167" />
            </Array>
          </mxGeometry>
        </mxCell>
        <mxCell id="cGicD6HLZmWZz7QnFyKL-45" value="&lt;div&gt;PReq&lt;/div&gt;" style="edgeLabel;html=1;align=center;verticalAlign=middle;resizable=0;points=[];strokeColor=default;fontFamily=Helvetica;fontSize=11;fontColor=default;labelBackgroundColor=default;fillColor=default;" vertex="1" connectable="0" parent="cGicD6HLZmWZz7QnFyKL-9">
          <mxGeometry x="0.0402" y="-1" relative="1" as="geometry">
            <mxPoint y="-1" as="offset" />
          </mxGeometry>
        </mxCell>
        <mxCell id="cGicD6HLZmWZz7QnFyKL-2" value="&lt;div&gt;Wait&lt;/div&gt;" style="ellipse;whiteSpace=wrap;html=1;fontSize=18;" vertex="1" parent="1">
          <mxGeometry x="166" y="136.53125" width="90" height="60" as="geometry" />
        </mxCell>
        <mxCell id="cGicD6HLZmWZz7QnFyKL-12" style="rounded=0;orthogonalLoop=1;jettySize=auto;html=1;exitX=1;exitY=0.5;exitDx=0;exitDy=0;entryX=0;entryY=0.5;entryDx=0;entryDy=0;noEdgeStyle=1;orthogonal=1;" edge="1" parent="1" source="cGicD6HLZmWZz7QnFyKL-3" target="cGicD6HLZmWZz7QnFyKL-5">
          <mxGeometry relative="1" as="geometry">
            <Array as="points">
              <mxPoint x="458" y="77" />
              <mxPoint x="534" y="150.33333333333334" />
            </Array>
          </mxGeometry>
        </mxCell>
        <mxCell id="cGicD6HLZmWZz7QnFyKL-3" value="FloorCall" style="ellipse;whiteSpace=wrap;html=1;fontSize=18;" vertex="1" parent="1">
          <mxGeometry x="356" y="47" width="90" height="60" as="geometry" />
        </mxCell>
        <mxCell id="cGicD6HLZmWZz7QnFyKL-10" style="rounded=0;orthogonalLoop=1;jettySize=auto;html=1;exitX=1;exitY=0.5;exitDx=0;exitDy=0;entryX=0;entryY=0.5;entryDx=0;entryDy=0;noEdgeStyle=1;orthogonal=1;" edge="1" parent="1" source="cGicD6HLZmWZz7QnFyKL-4" target="cGicD6HLZmWZz7QnFyKL-5">
          <mxGeometry relative="1" as="geometry">
            <Array as="points">
              <mxPoint x="458" y="167" />
              <mxPoint x="532" y="167" />
            </Array>
          </mxGeometry>
        </mxCell>
        <mxCell id="cGicD6HLZmWZz7QnFyKL-4" value="&lt;font style=&quot;font-size: 18px;&quot;&gt;PanelCall&lt;/font&gt;" style="ellipse;whiteSpace=wrap;html=1;" vertex="1" parent="1">
          <mxGeometry x="356" y="137" width="90" height="60" as="geometry" />
        </mxCell>
        <mxCell id="cGicD6HLZmWZz7QnFyKL-26" style="rounded=0;orthogonalLoop=1;jettySize=auto;html=1;exitX=1;exitY=0.5;exitDx=0;exitDy=0;entryX=0;entryY=0.5;entryDx=0;entryDy=0;noEdgeStyle=1;orthogonal=1;" edge="1" parent="1" source="cGicD6HLZmWZz7QnFyKL-5" target="cGicD6HLZmWZz7QnFyKL-21">
          <mxGeometry relative="1" as="geometry">
            <Array as="points">
              <mxPoint x="648" y="150.33333333333334" />
              <mxPoint x="724" y="77" />
            </Array>
          </mxGeometry>
        </mxCell>
        <mxCell id="cGicD6HLZmWZz7QnFyKL-47" value="L" style="edgeLabel;html=1;align=center;verticalAlign=middle;resizable=0;points=[];strokeColor=default;fontFamily=Helvetica;fontSize=11;fontColor=default;labelBackgroundColor=default;fillColor=default;" vertex="1" connectable="0" parent="cGicD6HLZmWZz7QnFyKL-26">
          <mxGeometry x="-0.0841" y="-3" relative="1" as="geometry">
            <mxPoint as="offset" />
          </mxGeometry>
        </mxCell>
        <mxCell id="cGicD6HLZmWZz7QnFyKL-27" style="rounded=0;orthogonalLoop=1;jettySize=auto;html=1;exitX=1;exitY=0.5;exitDx=0;exitDy=0;entryX=0;entryY=0.5;entryDx=0;entryDy=0;noEdgeStyle=1;orthogonal=1;" edge="1" parent="1" source="cGicD6HLZmWZz7QnFyKL-5" target="cGicD6HLZmWZz7QnFyKL-13">
          <mxGeometry relative="1" as="geometry">
            <Array as="points">
              <mxPoint x="650" y="167" />
              <mxPoint x="724" y="167" />
            </Array>
          </mxGeometry>
        </mxCell>
        <mxCell id="cGicD6HLZmWZz7QnFyKL-48" value="G" style="edgeLabel;html=1;align=center;verticalAlign=middle;resizable=0;points=[];strokeColor=default;fontFamily=Helvetica;fontSize=11;fontColor=default;labelBackgroundColor=default;fillColor=default;" vertex="1" connectable="0" parent="cGicD6HLZmWZz7QnFyKL-27">
          <mxGeometry x="-0.04" y="-1" relative="1" as="geometry">
            <mxPoint as="offset" />
          </mxGeometry>
        </mxCell>
        <mxCell id="cGicD6HLZmWZz7QnFyKL-35" style="edgeStyle=orthogonalEdgeStyle;rounded=0;orthogonalLoop=1;jettySize=auto;html=1;exitX=0;exitY=1;exitDx=0;exitDy=0;entryX=0.5;entryY=1;entryDx=0;entryDy=0;curved=1;noEdgeStyle=1;orthogonal=1;" edge="1" parent="1" source="cGicD6HLZmWZz7QnFyKL-5" target="cGicD6HLZmWZz7QnFyKL-2">
          <mxGeometry relative="1" as="geometry">
            <Array as="points">
              <mxPoint x="496" y="257" />
              <mxPoint x="286" y="287" />
            </Array>
          </mxGeometry>
        </mxCell>
        <mxCell id="cGicD6HLZmWZz7QnFyKL-46" value="E" style="edgeLabel;html=1;align=center;verticalAlign=middle;resizable=0;points=[];strokeColor=default;fontFamily=Helvetica;fontSize=11;fontColor=default;labelBackgroundColor=default;fillColor=default;" vertex="1" connectable="0" parent="cGicD6HLZmWZz7QnFyKL-35">
          <mxGeometry x="-0.8064" y="5" relative="1" as="geometry">
            <mxPoint x="-159" y="55" as="offset" />
          </mxGeometry>
        </mxCell>
        <mxCell id="cGicD6HLZmWZz7QnFyKL-5" value="&lt;font style=&quot;font-size: 18px;&quot;&gt;Move?&lt;/font&gt;" style="ellipse;whiteSpace=wrap;html=1;" vertex="1" parent="1">
          <mxGeometry x="546" y="137" width="90" height="60" as="geometry" />
        </mxCell>
        <mxCell id="cGicD6HLZmWZz7QnFyKL-17" style="rounded=0;orthogonalLoop=1;jettySize=auto;html=1;exitX=1;exitY=0;exitDx=0;exitDy=0;entryX=0;entryY=0.5;entryDx=0;entryDy=0;noEdgeStyle=1;orthogonal=1;" edge="1" parent="1" source="cGicD6HLZmWZz7QnFyKL-13" target="cGicD6HLZmWZz7QnFyKL-15">
          <mxGeometry relative="1" as="geometry">
            <Array as="points">
              <mxPoint x="838" y="154.5" />
              <mxPoint x="914" y="167" />
            </Array>
          </mxGeometry>
        </mxCell>
        <mxCell id="cGicD6HLZmWZz7QnFyKL-60" value="Align&#39;" style="edgeLabel;html=1;align=center;verticalAlign=middle;resizable=0;points=[];strokeColor=default;fontFamily=Helvetica;fontSize=11;fontColor=default;labelBackgroundColor=default;fillColor=default;" vertex="1" connectable="0" parent="cGicD6HLZmWZz7QnFyKL-17">
          <mxGeometry x="-0.2889" y="1" relative="1" as="geometry">
            <mxPoint as="offset" />
          </mxGeometry>
        </mxCell>
        <mxCell id="cGicD6HLZmWZz7QnFyKL-13" value="&lt;div&gt;Aligned&lt;/div&gt;" style="ellipse;whiteSpace=wrap;html=1;" vertex="1" parent="1">
          <mxGeometry x="736" y="137" width="90" height="60" as="geometry" />
        </mxCell>
        <mxCell id="cGicD6HLZmWZz7QnFyKL-18" style="rounded=0;orthogonalLoop=1;jettySize=auto;html=1;exitX=1;exitY=0.5;exitDx=0;exitDy=0;entryX=0;entryY=0.5;entryDx=0;entryDy=0;noEdgeStyle=1;orthogonal=1;" edge="1" parent="1" source="cGicD6HLZmWZz7QnFyKL-15" target="cGicD6HLZmWZz7QnFyKL-16">
          <mxGeometry relative="1" as="geometry">
            <Array as="points">
              <mxPoint x="1028" y="167" />
            </Array>
          </mxGeometry>
        </mxCell>
        <mxCell id="cGicD6HLZmWZz7QnFyKL-15" value="Inc" style="ellipse;whiteSpace=wrap;html=1;" vertex="1" parent="1">
          <mxGeometry x="926" y="137" width="90" height="60" as="geometry" />
        </mxCell>
        <mxCell id="cGicD6HLZmWZz7QnFyKL-19" style="rounded=0;orthogonalLoop=1;jettySize=auto;html=1;exitX=0;exitY=0.5;exitDx=0;exitDy=0;entryX=1;entryY=0.5;entryDx=0;entryDy=0;noEdgeStyle=1;orthogonal=1;" edge="1" parent="1" source="cGicD6HLZmWZz7QnFyKL-16" target="cGicD6HLZmWZz7QnFyKL-13">
          <mxGeometry relative="1" as="geometry">
            <Array as="points">
              <mxPoint x="1104" y="179.5" />
              <mxPoint x="1066" y="227" />
              <mxPoint x="876" y="227" />
              <mxPoint x="838" y="179.5" />
            </Array>
          </mxGeometry>
        </mxCell>
        <mxCell id="cGicD6HLZmWZz7QnFyKL-61" value="Align*E&#39;" style="edgeLabel;html=1;align=center;verticalAlign=middle;resizable=0;points=[];strokeColor=default;fontFamily=Helvetica;fontSize=11;fontColor=default;labelBackgroundColor=default;fillColor=default;" vertex="1" connectable="0" parent="cGicD6HLZmWZz7QnFyKL-19">
          <mxGeometry x="0.1784" y="1" relative="1" as="geometry">
            <mxPoint x="30" as="offset" />
          </mxGeometry>
        </mxCell>
        <mxCell id="cGicD6HLZmWZz7QnFyKL-29" style="rounded=0;orthogonalLoop=1;jettySize=auto;html=1;exitX=1;exitY=0.5;exitDx=0;exitDy=0;entryX=0;entryY=0.5;entryDx=0;entryDy=0;noEdgeStyle=1;orthogonal=1;" edge="1" parent="1" source="cGicD6HLZmWZz7QnFyKL-16" target="cGicD6HLZmWZz7QnFyKL-28">
          <mxGeometry relative="1" as="geometry">
            <Array as="points">
              <mxPoint x="1218" y="167" />
              <mxPoint x="1292" y="167" />
            </Array>
          </mxGeometry>
        </mxCell>
        <mxCell id="cGicD6HLZmWZz7QnFyKL-43" value="Align*E" style="edgeLabel;html=1;align=center;verticalAlign=middle;resizable=0;points=[];strokeColor=default;fontFamily=Helvetica;fontSize=11;fontColor=default;labelBackgroundColor=default;fillColor=default;" vertex="1" connectable="0" parent="cGicD6HLZmWZz7QnFyKL-29">
          <mxGeometry x="-0.12" y="-1" relative="1" as="geometry">
            <mxPoint as="offset" />
          </mxGeometry>
        </mxCell>
        <mxCell id="cGicD6HLZmWZz7QnFyKL-16" value="&lt;div&gt;Unaligned&lt;/div&gt;" style="ellipse;whiteSpace=wrap;html=1;" vertex="1" parent="1">
          <mxGeometry x="1116" y="137" width="90" height="60" as="geometry" />
        </mxCell>
        <mxCell id="cGicD6HLZmWZz7QnFyKL-20" style="rounded=0;orthogonalLoop=1;jettySize=auto;html=1;exitX=1;exitY=0;exitDx=0;exitDy=0;entryX=0;entryY=0.5;entryDx=0;entryDy=0;noEdgeStyle=1;orthogonal=1;" edge="1" parent="1" source="cGicD6HLZmWZz7QnFyKL-21" target="cGicD6HLZmWZz7QnFyKL-23">
          <mxGeometry relative="1" as="geometry">
            <Array as="points">
              <mxPoint x="914" y="47" />
            </Array>
          </mxGeometry>
        </mxCell>
        <mxCell id="cGicD6HLZmWZz7QnFyKL-54" value="Align&#39;" style="edgeLabel;html=1;align=center;verticalAlign=middle;resizable=0;points=[];strokeColor=default;fontFamily=Helvetica;fontSize=11;fontColor=default;labelBackgroundColor=default;fillColor=default;" vertex="1" connectable="0" parent="cGicD6HLZmWZz7QnFyKL-20">
          <mxGeometry x="-0.2836" y="2" relative="1" as="geometry">
            <mxPoint as="offset" />
          </mxGeometry>
        </mxCell>
        <mxCell id="cGicD6HLZmWZz7QnFyKL-21" value="&lt;div&gt;Aligned&lt;/div&gt;" style="ellipse;whiteSpace=wrap;html=1;" vertex="1" parent="1">
          <mxGeometry x="736" y="47" width="90" height="60" as="geometry" />
        </mxCell>
        <mxCell id="cGicD6HLZmWZz7QnFyKL-22" style="rounded=0;orthogonalLoop=1;jettySize=auto;html=1;entryX=0;entryY=0.5;entryDx=0;entryDy=0;noEdgeStyle=1;orthogonal=1;exitX=1;exitY=0.5;exitDx=0;exitDy=0;" edge="1" parent="1" source="cGicD6HLZmWZz7QnFyKL-23" target="cGicD6HLZmWZz7QnFyKL-25">
          <mxGeometry relative="1" as="geometry">
            <mxPoint x="1056" y="37" as="sourcePoint" />
            <Array as="points">
              <mxPoint x="1028" y="47" />
              <mxPoint x="1104" y="64.5" />
            </Array>
          </mxGeometry>
        </mxCell>
        <mxCell id="cGicD6HLZmWZz7QnFyKL-23" value="&lt;div&gt;Dec&lt;/div&gt;" style="ellipse;whiteSpace=wrap;html=1;" vertex="1" parent="1">
          <mxGeometry x="926" y="17" width="90" height="60" as="geometry" />
        </mxCell>
        <mxCell id="cGicD6HLZmWZz7QnFyKL-24" style="rounded=0;orthogonalLoop=1;jettySize=auto;html=1;exitX=0;exitY=0.5;exitDx=0;exitDy=0;entryX=1;entryY=0.5;entryDx=0;entryDy=0;noEdgeStyle=1;orthogonal=1;" edge="1" parent="1" source="cGicD6HLZmWZz7QnFyKL-25" target="cGicD6HLZmWZz7QnFyKL-21">
          <mxGeometry relative="1" as="geometry">
            <Array as="points">
              <mxPoint x="1104" y="89.5" />
              <mxPoint x="1066" y="107" />
              <mxPoint x="876" y="107" />
              <mxPoint x="838" y="89.5" />
            </Array>
          </mxGeometry>
        </mxCell>
        <mxCell id="cGicD6HLZmWZz7QnFyKL-62" value="Align*E&#39;" style="edgeLabel;html=1;align=center;verticalAlign=middle;resizable=0;points=[];strokeColor=default;fontFamily=Helvetica;fontSize=11;fontColor=default;labelBackgroundColor=default;fillColor=default;" vertex="1" connectable="0" parent="cGicD6HLZmWZz7QnFyKL-24">
          <mxGeometry x="0.1728" y="-1" relative="1" as="geometry">
            <mxPoint x="27" y="1" as="offset" />
          </mxGeometry>
        </mxCell>
        <mxCell id="cGicD6HLZmWZz7QnFyKL-31" style="rounded=0;orthogonalLoop=1;jettySize=auto;html=1;exitX=1;exitY=0.5;exitDx=0;exitDy=0;entryX=0;entryY=0.5;entryDx=0;entryDy=0;noEdgeStyle=1;orthogonal=1;" edge="1" parent="1" source="cGicD6HLZmWZz7QnFyKL-25" target="cGicD6HLZmWZz7QnFyKL-28">
          <mxGeometry relative="1" as="geometry">
            <Array as="points">
              <mxPoint x="1218" y="77" />
              <mxPoint x="1294" y="150.33333333333334" />
            </Array>
          </mxGeometry>
        </mxCell>
        <mxCell id="cGicD6HLZmWZz7QnFyKL-42" value="&lt;div&gt;Align*E&lt;/div&gt;" style="edgeLabel;html=1;align=center;verticalAlign=middle;resizable=0;points=[];strokeColor=default;fontFamily=Helvetica;fontSize=11;fontColor=default;labelBackgroundColor=default;fillColor=default;" vertex="1" connectable="0" parent="cGicD6HLZmWZz7QnFyKL-31">
          <mxGeometry x="-0.2021" y="-1" relative="1" as="geometry">
            <mxPoint as="offset" />
          </mxGeometry>
        </mxCell>
        <mxCell id="cGicD6HLZmWZz7QnFyKL-25" value="&lt;div&gt;Unaligned&lt;/div&gt;" style="ellipse;whiteSpace=wrap;html=1;" vertex="1" parent="1">
          <mxGeometry x="1116" y="47" width="90" height="60" as="geometry" />
        </mxCell>
        <mxCell id="cGicD6HLZmWZz7QnFyKL-40" style="edgeStyle=orthogonalEdgeStyle;shape=connector;rounded=1;orthogonalLoop=1;jettySize=auto;html=1;exitX=0;exitY=1;exitDx=0;exitDy=0;entryX=0.5;entryY=1;entryDx=0;entryDy=0;strokeColor=default;align=center;verticalAlign=middle;fontFamily=Helvetica;fontSize=11;fontColor=default;labelBackgroundColor=default;endArrow=classic;curved=0;noEdgeStyle=1;orthogonal=1;" edge="1" parent="1" source="cGicD6HLZmWZz7QnFyKL-28" target="cGicD6HLZmWZz7QnFyKL-5">
          <mxGeometry relative="1" as="geometry">
            <Array as="points">
              <mxPoint x="1256" y="257" />
              <mxPoint x="1066" y="257" />
              <mxPoint x="1066" y="257" />
              <mxPoint x="876" y="257" />
              <mxPoint x="876" y="257" />
              <mxPoint x="686" y="257" />
              <mxPoint x="596" y="257" />
            </Array>
          </mxGeometry>
        </mxCell>
        <mxCell id="cGicD6HLZmWZz7QnFyKL-28" value="&lt;div&gt;Done&lt;/div&gt;" style="ellipse;whiteSpace=wrap;html=1;fontSize=18;" vertex="1" parent="1">
          <mxGeometry x="1306" y="137" width="90" height="60" as="geometry" />
        </mxCell>
        <mxCell id="cGicD6HLZmWZz7QnFyKL-50" style="edgeStyle=orthogonalEdgeStyle;shape=connector;rounded=0;orthogonalLoop=1;jettySize=auto;html=1;exitX=0;exitY=0;exitDx=0;exitDy=0;entryX=0.5;entryY=0;entryDx=0;entryDy=0;strokeColor=default;align=center;verticalAlign=middle;fontFamily=Helvetica;fontSize=11;fontColor=default;labelBackgroundColor=default;endArrow=classic;curved=1;" edge="1" parent="1" source="cGicD6HLZmWZz7QnFyKL-13" target="cGicD6HLZmWZz7QnFyKL-13">
          <mxGeometry relative="1" as="geometry">
            <Array as="points">
              <mxPoint x="749" y="117" />
              <mxPoint x="781" y="117" />
            </Array>
          </mxGeometry>
        </mxCell>
        <mxCell id="cGicD6HLZmWZz7QnFyKL-51" value="&lt;div&gt;Align&lt;/div&gt;" style="edgeLabel;html=1;align=center;verticalAlign=middle;resizable=0;points=[];strokeColor=default;fontFamily=Helvetica;fontSize=11;fontColor=default;labelBackgroundColor=default;fillColor=default;" vertex="1" connectable="0" parent="cGicD6HLZmWZz7QnFyKL-50">
          <mxGeometry x="-0.0977" y="-3" relative="1" as="geometry">
            <mxPoint as="offset" />
          </mxGeometry>
        </mxCell>
        <mxCell id="cGicD6HLZmWZz7QnFyKL-52" style="edgeStyle=orthogonalEdgeStyle;shape=connector;rounded=0;orthogonalLoop=1;jettySize=auto;html=1;exitX=0;exitY=0;exitDx=0;exitDy=0;entryX=0.5;entryY=0;entryDx=0;entryDy=0;strokeColor=default;align=center;verticalAlign=middle;fontFamily=Helvetica;fontSize=11;fontColor=default;labelBackgroundColor=default;endArrow=classic;curved=1;" edge="1" parent="1" source="cGicD6HLZmWZz7QnFyKL-21" target="cGicD6HLZmWZz7QnFyKL-21">
          <mxGeometry relative="1" as="geometry">
            <Array as="points">
              <mxPoint x="749" y="27" />
              <mxPoint x="781" y="27" />
            </Array>
          </mxGeometry>
        </mxCell>
        <mxCell id="cGicD6HLZmWZz7QnFyKL-53" value="Align" style="edgeLabel;html=1;align=center;verticalAlign=middle;resizable=0;points=[];strokeColor=default;fontFamily=Helvetica;fontSize=11;fontColor=default;labelBackgroundColor=default;fillColor=default;" vertex="1" connectable="0" parent="cGicD6HLZmWZz7QnFyKL-52">
          <mxGeometry x="-0.5095" relative="1" as="geometry">
            <mxPoint as="offset" />
          </mxGeometry>
        </mxCell>
        <mxCell id="cGicD6HLZmWZz7QnFyKL-55" style="edgeStyle=orthogonalEdgeStyle;shape=connector;rounded=0;orthogonalLoop=1;jettySize=auto;html=1;exitX=0;exitY=0;exitDx=0;exitDy=0;entryX=0.5;entryY=0;entryDx=0;entryDy=0;strokeColor=default;align=center;verticalAlign=middle;fontFamily=Helvetica;fontSize=11;fontColor=default;labelBackgroundColor=default;endArrow=classic;curved=1;" edge="1" parent="1" source="cGicD6HLZmWZz7QnFyKL-25" target="cGicD6HLZmWZz7QnFyKL-25">
          <mxGeometry relative="1" as="geometry">
            <Array as="points">
              <mxPoint x="1129" y="27" />
              <mxPoint x="1161" y="27" />
            </Array>
          </mxGeometry>
        </mxCell>
        <mxCell id="cGicD6HLZmWZz7QnFyKL-56" value="Align&#39;" style="edgeLabel;html=1;align=center;verticalAlign=middle;resizable=0;points=[];strokeColor=default;fontFamily=Helvetica;fontSize=11;fontColor=default;labelBackgroundColor=default;fillColor=default;" vertex="1" connectable="0" parent="cGicD6HLZmWZz7QnFyKL-55">
          <mxGeometry x="-0.5949" relative="1" as="geometry">
            <mxPoint as="offset" />
          </mxGeometry>
        </mxCell>
        <mxCell id="cGicD6HLZmWZz7QnFyKL-57" style="edgeStyle=orthogonalEdgeStyle;shape=connector;rounded=0;orthogonalLoop=1;jettySize=auto;html=1;exitX=0;exitY=0;exitDx=0;exitDy=0;entryX=0.5;entryY=0;entryDx=0;entryDy=0;strokeColor=default;align=center;verticalAlign=middle;fontFamily=Helvetica;fontSize=11;fontColor=default;labelBackgroundColor=default;endArrow=classic;curved=1;" edge="1" parent="1" source="cGicD6HLZmWZz7QnFyKL-16" target="cGicD6HLZmWZz7QnFyKL-16">
          <mxGeometry relative="1" as="geometry">
            <Array as="points">
              <mxPoint x="1129" y="117" />
              <mxPoint x="1161" y="117" />
            </Array>
          </mxGeometry>
        </mxCell>
        <mxCell id="cGicD6HLZmWZz7QnFyKL-58" value="Align&#39;" style="edgeLabel;html=1;align=center;verticalAlign=middle;resizable=0;points=[];strokeColor=default;fontFamily=Helvetica;fontSize=11;fontColor=default;labelBackgroundColor=default;fillColor=default;" vertex="1" connectable="0" parent="cGicD6HLZmWZz7QnFyKL-57">
          <mxGeometry x="-0.5009" y="-3" relative="1" as="geometry">
            <mxPoint as="offset" />
          </mxGeometry>
        </mxCell>
        <mxCell id="cGicD6HLZmWZz7QnFyKL-68" style="edgeStyle=orthogonalEdgeStyle;shape=connector;rounded=0;orthogonalLoop=1;jettySize=auto;html=1;exitX=0;exitY=0;exitDx=0;exitDy=0;entryX=0.5;entryY=0;entryDx=0;entryDy=0;strokeColor=default;align=center;verticalAlign=middle;fontFamily=Helvetica;fontSize=11;fontColor=default;labelBackgroundColor=default;endArrow=classic;curved=1;" edge="1" parent="1" source="cGicD6HLZmWZz7QnFyKL-2" target="cGicD6HLZmWZz7QnFyKL-2">
          <mxGeometry relative="1" as="geometry">
            <Array as="points">
              <mxPoint x="179" y="117" />
              <mxPoint x="211" y="117" />
            </Array>
          </mxGeometry>
        </mxCell>
      </root>
    </mxGraphModel>
  </diagram>
</mxfile>
